<svg xmlns="http://www.w3.org/2000/svg" xmlns:xlink="http://www.w3.org/1999/xlink" id="Layer_1" width="40" height="40" x="0" y="0" enable-background="new 0 0 40 40" version="1.1" viewBox="0 0 40 40" xml:space="preserve"><switch><g><g opacity=".7"><g opacity=".75"><path fill-rule="evenodd" d="M39,11v-1c0-1.47-0.48-2-2-2H3c-1.53,0-2,0.52-2,2v1c0,1.55,0.52,2,2,2h34 C38.5,13,39,12.52,39,11z" clip-rule="evenodd"/></g><g><path fill="#FFF" fill-rule="evenodd" d="M39,10V9c0-1.47-0.48-2-2-2H3C1.47,7,1,7.52,1,9v1 c0,1.55,0.52,2,2,2h34C38.5,12,39,11.52,39,10z" clip-rule="evenodd"/></g></g><g opacity=".7"><g opacity=".75"><path fill-rule="evenodd" d="M39,22v-1c0-1.47-0.48-2-2-2H3c-1.53,0-2,0.52-2,2v1c0,1.55,0.52,2,2,2h34 C38.5,24,39,23.52,39,22z" clip-rule="evenodd"/></g><g><path fill="#FFF" fill-rule="evenodd" d="M39,21v-1c0-1.47-0.48-2-2-2H3c-1.53,0-2,0.52-2,2v1 c0,1.55,0.52,2,2,2h34C38.5,23,39,22.52,39,21z" clip-rule="evenodd"/></g></g><g opacity=".7"><g opacity=".75"><path fill-rule="evenodd" d="M39,33v-1c0-1.471-0.48-2-2-2H3c-1.53,0-2,0.52-2,2v1c0,1.55,0.52,2,2,2h34 C38.5,35,39,34.52,39,33z" clip-rule="evenodd"/></g><g><path fill="#FFF" fill-rule="evenodd" d="M39,32v-1c0-1.471-0.48-2-2-2H3c-1.53,0-2,0.52-2,2v1 c0,1.55,0.52,2,2,2h34C38.5,34,39,33.52,39,32z" clip-rule="evenodd"/></g></g></g></switch></svg>